<svg xmlns="http://www.w3.org/2000/svg" viewBox="0 0 400 400">
  <defs>
    <radialGradient id="logoGrad" cx="50%" cy="30%" r="70%">
      <stop offset="0%" style="stop-color:#ffffff;stop-opacity:1" />
      <stop offset="50%" style="stop-color:#00f5ff;stop-opacity:1" />
      <stop offset="100%" style="stop-color:#0080ff;stop-opacity:1" />
    </radialGradient>
    <filter id="glow" x="-50%" y="-50%" width="200%" height="200%">
      <feGaussianBlur stdDeviation="4" result="coloredBlur"/>
      <feMerge>
        <feMergeNode in="coloredBlur"/>
        <feMergeNode in="SourceGraphic"/>
      </feMerge>
    </filter>
    <linearGradient id="ballGrad" x1="0%" y1="0%" x2="100%" y2="100%">
      <stop offset="0%" style="stop-color:#ffffff;stop-opacity:0.9" />
      <stop offset="50%" style="stop-color:#e0e0e0;stop-opacity:0.8" />
      <stop offset="100%" style="stop-color:#c0c0c0;stop-opacity:0.7" />
    </linearGradient>
  </defs>
  
  <!-- Outer dynamic rings -->
  <circle cx="200" cy="200" r="190" fill="none" stroke="url(#logoGrad)" stroke-width="3" opacity="0.6">
    <animate attributeName="r" values="190;195;190" dur="4s" repeatCount="indefinite"/>
    <animate attributeName="opacity" values="0.6;0.8;0.6" dur="4s" repeatCount="indefinite"/>
  </circle>
  
  <circle cx="200" cy="200" r="170" fill="none" stroke="url(#logoGrad)" stroke-width="2" opacity="0.4">
    <animate attributeName="r" values="170;175;170" dur="3s" repeatCount="indefinite"/>
  </circle>
  
  <!-- Dynamic swoosh elements -->
  <path d="M50,200 Q200,50 350,200 Q200,350 50,200" 
        fill="none" stroke="url(#logoGrad)" stroke-width="3" opacity="0.5">
    <animate attributeName="opacity" values="0.3;0.7;0.3" dur="5s" repeatCount="indefinite"/>
  </path>
  
  <path d="M200,50 Q350,200 200,350 Q50,200 200,50" 
        fill="none" stroke="url(#logoGrad)" stroke-width="2" opacity="0.4">
    <animate attributeName="opacity" values="0.7;0.3;0.7" dur="5s" repeatCount="indefinite"/>
  </path>
  
  <!-- Central football/soccer ball -->
  <g transform="translate(200,200)" filter="url(#glow)">
    <!-- Main ball circle -->
    <circle cx="0" cy="0" r="90" fill="url(#ballGrad)" stroke="url(#logoGrad)" stroke-width="3"/>
    
    <!-- Pentagon in center -->
    <path d="M-25,-35 L25,-35 L40,-10 L15,28 L-15,28 L-40,-10 Z" 
          fill="none" stroke="url(#logoGrad)" stroke-width="3"/>
    
    <!-- Hexagon patterns -->
    <path d="M-45,-20 L-30,-40 L-10,-40 L5,-20 L-10,0 L-30,0 Z" 
          fill="none" stroke="url(#logoGrad)" stroke-width="2.5"/>
    
    <path d="M30,-40 L50,-40 L65,-20 L50,0 L30,0 L15,-20 Z" 
          fill="none" stroke="url(#logoGrad)" stroke-width="2.5"/>
    
    <path d="M-45,30 L-30,10 L-10,10 L5,30 L-10,50 L-30,50 Z" 
          fill="none" stroke="url(#logoGrad)" stroke-width="2.5"/>
    
    <path d="M30,0 L50,0 L65,20 L50,40 L30,40 L15,20 Z" 
          fill="none" stroke="url(#logoGrad)" stroke-width="2.5"/>
    
    <!-- Connecting lines -->
    <g stroke="url(#logoGrad)" stroke-width="2" opacity="0.8">
      <path d="M-25,-35 L-30,-40 M25,-35 L30,-40 M40,-10 L50,-20 M40,-10 L65,-20
               M15,28 L15,20 M15,28 L30,0 M-15,28 L-30,10 M-15,28 L-15,20
               M-40,-10 L-45,-20 M-40,-10 L-65,-20"/>
    </g>
    
    <!-- Inner details -->
    <circle cx="0" cy="0" r="60" fill="none" stroke="url(#logoGrad)" stroke-width="1.5" opacity="0.6"/>
    <circle cx="0" cy="0" r="30" fill="none" stroke="url(#logoGrad)" stroke-width="1" opacity="0.4"/>
  </g>
  
  <!-- Animated elements -->
  <g opacity="0.6">
    <path d="M100,100 Q200,150 300,100" fill="none" stroke="url(#logoGrad)" stroke-width="2">
      <animate attributeName="d" values="M100,100 Q200,150 300,100;M100,120 Q200,170 300,120;M100,100 Q200,150 300,100" dur="6s" repeatCount="indefinite"/>
    </path>
    <path d="M100,300 Q200,250 300,300" fill="none" stroke="url(#logoGrad)" stroke-width="2">
      <animate attributeName="d" values="M100,300 Q200,250 300,300;M100,280 Q200,230 300,280;M100,300 Q200,250 300,300" dur="6s" repeatCount="indefinite"/>
    </path>
  </g>
</svg>
