<svg xmlns="http://www.w3.org/2000/svg" viewBox="0 0 400 400">
  <defs>
    <radialGradient id="logoGradient" cx="50%" cy="30%" r="60%">
      <stop offset="0%" style="stop-color:#ffffff;stop-opacity:1" />
      <stop offset="40%" style="stop-color:#00f5ff;stop-opacity:1" />
      <stop offset="100%" style="stop-color:#0080ff;stop-opacity:1" />
    </radialGradient>
    <filter id="glow" x="-50%" y="-50%" width="200%" height="200%">
      <feGaussianBlur stdDeviation="4" result="coloredBlur"/>
      <feMerge>
        <feMergeNode in="coloredBlur"/>
        <feMergeNode in="SourceGraphic"/>
      </feMerge>
    </filter>
    <filter id="innerGlow" x="-50%" y="-50%" width="200%" height="200%">
      <feGaussianBlur stdDeviation="2" result="coloredBlur"/>
      <feMerge>
        <feMergeNode in="coloredBlur"/>
        <feMergeNode in="SourceGraphic"/>
      </feMerge>
    </filter>
  </defs>
  
  <!-- Outer Ring -->
  <circle cx="200" cy="200" r="180" fill="none" stroke="url(#logoGradient)" stroke-width="4" opacity="0.8" filter="url(#glow)"/>
  
  <!-- Inner Ring -->
  <circle cx="200" cy="200" r="150" fill="none" stroke="url(#logoGradient)" stroke-width="3" opacity="0.6"/>
  
  <!-- Football/Soccer Ball -->
  <g transform="translate(200,200)" filter="url(#innerGlow)">
    <!-- Main ball outline -->
    <circle cx="0" cy="0" r="80" fill="none" stroke="url(#logoGradient)" stroke-width="4"/>
    
    <!-- Pentagon in center -->
    <path d="M-20,-30 L20,-30 L32,-9 L12,24 L-12,24 L-32,-9 Z" 
          fill="none" stroke="url(#logoGradient)" stroke-width="3"/>
    
    <!-- Hexagon patterns around pentagon -->
    <path d="M-40,-15 L-25,-35 L-5,-35 L10,-15 L-5,5 L-25,5 Z" 
          fill="none" stroke="url(#logoGradient)" stroke-width="2" opacity="0.8"/>
    
    <path d="M25,-35 L45,-35 L55,-15 L45,5 L25,5 L15,-15 Z" 
          fill="none" stroke="url(#logoGradient)" stroke-width="2" opacity="0.8"/>
    
    <path d="M-40,25 L-25,5 L-5,5 L10,25 L-5,45 L-25,45 Z" 
          fill="none" stroke="url(#logoGradient)" stroke-width="2" opacity="0.8"/>
    
    <path d="M25,5 L45,5 L55,25 L45,45 L25,45 L15,25 Z" 
          fill="none" stroke="url(#logoGradient)" stroke-width="2" opacity="0.8"/>
    
    <!-- Connecting lines -->
    <path d="M-20,-30 L-25,-35 M20,-30 L25,-35 M32,-9 L45,-15 M32,-9 L55,-15
             M12,24 L15,25 M12,24 L25,5 M-12,24 L-25,5 M-12,24 L-15,25
             M-32,-9 L-40,-15 M-32,-9 L-55,-15" 
          stroke="url(#logoGradient)" stroke-width="1.5" opacity="0.6"/>
  </g>
  
  <!-- Dynamic elements -->
  <path d="M50,200 Q200,50 350,200 Q200,350 50,200" 
        fill="none" stroke="url(#logoGradient)" stroke-width="2" opacity="0.4">
    <animate attributeName="opacity" values="0.2;0.6;0.2" dur="3s" repeatCount="indefinite"/>
  </path>
  
  <path d="M200,50 Q350,200 200,350 Q50,200 200,50" 
        fill="none" stroke="url(#logoGradient)" stroke-width="2" opacity="0.4">
    <animate attributeName="opacity" values="0.6;0.2;0.6" dur="3s" repeatCount="indefinite"/>
  </path>
</svg>
